<?xml version="1.0" standalone="no"?>
<!DOCTYPE svg PUBLIC "-//W3C//DTD SVG 20010904//EN"
 "http://www.w3.org/TR/2001/REC-SVG-20010904/DTD/svg10.dtd">
<svg version="1.0" xmlns="http://www.w3.org/2000/svg"
 width="256.000000pt" height="256.000000pt" viewBox="0 0 256.000000 256.000000"
 preserveAspectRatio="xMidYMid meet">
<metadata>
Created by potrace 1.14, written by Peter Selinger 2001-2017
</metadata>
<g transform="translate(0.000000,256.000000) scale(0.100000,-0.100000)"
fill="#000000" stroke="none">
<path d="M1169 2541 c-105 -34 -185 -106 -232 -208 -22 -47 -22 -57 -25 -486
l-3 -437 -45 -45 -45 -45 -409 0 -410 0 0 -660 0 -660 1280 0 1280 0 0 660 0
660 -410 0 -409 0 -46 45 -45 46 0 418 c0 415 -2 440 -35 516 -73 163 -274
252 -446 196z m228 -91 c95 -42 158 -131 170 -240 6 -58 5 -60 -18 -60 -47 -1
-435 -1 -498 -1 l-64 1 6 60 c22 202 221 321 404 240z m171 -427 l3 -42 -290
0 -291 0 0 38 c0 21 2 40 4 42 3 2 132 4 288 4 l283 0 3 -42z m-328 -371 l0
-247 -125 -1 -125 0 0 248 0 248 125 0 125 0 0 -248z m330 3 c0 -188 -3 -245
-12 -247 -7 0 -64 -2 -125 -2 l-113 -1 0 247 0 248 125 0 125 0 0 -245z m74
-357 c8 -13 8 -23 0 -35 -10 -17 -40 -18 -359 -21 -358 -2 -375 -1 -375 37 0
40 11 41 374 39 320 -3 350 -4 360 -20z m-804 -73 c7 -9 10 -24 6 -37 -23 -74
-24 -88 -7 -121 15 -29 15 -37 4 -54 -7 -10 -14 -38 -15 -61 -1 -47 36 -106
74 -116 17 -4 57 -64 155 -234 73 -126 142 -237 154 -248 20 -18 46 -19 550
-22 477 -2 533 -1 565 14 60 28 83 97 54 161 -27 61 -60 72 -220 72 -213 0
-199 -2 -212 26 -21 46 0 55 128 55 l114 0 0 40 c0 46 13 42 -141 42 -92 0
-126 -8 -155 -36 -53 -53 -42 -149 23 -191 23 -16 52 -18 198 -20 94 -1 176
-5 183 -9 18 -11 14 -54 -6 -65 -19 -10 -892 -14 -892 -4 0 4 53 98 118 209
91 158 123 205 146 216 16 7 38 25 48 39 23 31 26 101 6 131 -13 19 -13 26 -2
43 18 28 20 73 4 117 -26 70 -36 69 384 66 l371 -3 1 -492 1 -493 -1033 0
-1032 0 -1 138 c0 75 0 149 0 164 l-1 28 -152 -1 c-84 0 -158 0 -164 0 -7 1
-11 100 -11 331 l0 329 372 1 c321 0 374 -2 385 -15z m798 -78 c6 -5 12 -19
12 -32 0 -13 -6 -27 -12 -32 -18 -11 -689 -13 -710 -1 -22 11 -24 54 -3 65 19
11 696 11 713 0z m6 -179 c8 -13 8 -23 0 -35 -10 -17 -40 -18 -359 -21 -358
-2 -375 -1 -375 37 0 40 11 41 374 39 320 -3 350 -4 360 -20z m-114 -149 c0
-7 -126 -228 -135 -237 -2 -2 -54 -3 -116 -3 -95 1 -115 4 -124 18 -5 9 -19
33 -30 52 -11 20 -37 64 -58 99 -20 35 -37 66 -37 70 0 4 113 7 250 7 138 1
250 -2 250 -6z m-1200 -419 l0 -95 -90 90 c-50 49 -90 92 -90 95 0 3 40 6 90
6 l90 -1 0 -95z m1010 89 c0 -16 -47 -74 -60 -74 -13 0 -60 59 -60 74 0 4 27
6 60 6 33 0 60 -3 60 -6z m-1118 -191 l132 -132 1058 0 c1157 -1 1064 4 1066
-57 l2 -26 -1198 1 -1197 1 -1 173 c-1 94 0 172 2 172 2 0 63 -59 136 -132z"/>
<path d="M169 1151 c-1 -3 -2 -115 -3 -248 l-1 -243 42 0 42 0 -2 247 -2 248
-37 1 c-21 1 -39 -1 -39 -5z"/>
<path d="M330 993 c0 -101 4 -163 10 -164 13 -2 35 -2 58 0 15 1 17 12 15 103
-1 57 -2 131 -2 164 l-1 62 -40 -1 -40 -1 0 -163z"/>
<path d="M497 1145 c-2 -5 -3 -116 -3 -245 l1 -235 42 -3 41 -3 1 249 0 248
-39 0 c-22 0 -41 -5 -43 -11z"/>
<path d="M660 908 l0 -248 40 0 c31 0 40 4 41 18 6 118 2 472 -6 474 -5 0 -25
2 -42 3 l-33 1 0 -248z"/>
<path d="M342 742 c-7 -2 -12 -21 -12 -43 0 -39 0 -39 40 -39 l40 0 0 40 c0
22 -3 40 -7 41 -5 0 -17 2 -28 3 -12 1 -26 1 -33 -2z"/>
</g>
</svg>
